Coordinates
version=1
nRows=13
nColumns=40
inDegrees=yes

Units are S.I. units (second, meters, Newtons, ...)
If the header above contains a line with 'inDegrees', this indicates whether rotational values are in degrees (yes) or radians (no).

endheader
time	pelvis_tilt	pelvis_list	pelvis_rotation	pelvis_tx	pelvis_ty	pelvis_tz	hip_flexion_r	hip_adduction_r	hip_rotation_r	knee_angle_r	knee_angle_r_beta	ankle_angle_r	subtalar_angle_r	mtp_angle_r	hip_flexion_l	hip_adduction_l	hip_rotation_l	knee_angle_l	knee_angle_l_beta	ankle_angle_l	subtalar_angle_l	mtp_angle_l	lumbar_extension	lumbar_bending	lumbar_rotation	arm_flex_r	arm_add_r	arm_rot_r	elbow_flex_r	pro_sup_r	wrist_flex_r	wrist_dev_r	arm_flex_l	arm_add_l	arm_rot_l	elbow_flex_l	pro_sup_l	wrist_flex_l	wrist_dev_l
      3.27500000	    -30.88412062	      0.80429854	      6.87224517	      0.08287740	      0.56854833	     -1.19045658	    103.13083727	    -47.83426223	      8.39778277	     95.45088172	      1.66593216	     26.63898339	      0.63060824	      0.00000000	     99.77943171	    -33.56599511	      2.27303014	     91.40268264	      1.59527776	     26.66721844	     15.25554503	      0.00000000	      0.00000000	      0.00000000	      0.00000000	     41.96518447	    -14.82538879	     41.96518447	     75.02325793	     44.99999758	      0.00000000	      0.00000000	     41.96518447	    -14.82538879	     41.96518447	     75.02325793	     44.99999758	      0.00000000	      0.00000000
      3.28000000	    -30.86127014	      0.81916345	      6.82846765	      0.08295372	      0.56709510	     -1.19034112	    103.37978383	    -47.81174364	      8.62610762	     95.69596759	      1.67020972	     26.74158635	      0.71510968	      0.00000000	     99.96323269	    -33.64374642	      2.41995602	     91.64535341	      1.59951316	     26.76401176	     15.28328896	      0.00000000	      0.00000000	      0.00000000	      0.00000000	     42.02002114	    -14.83039907	     42.02002114	     75.02206899	     44.99999788	      0.00000000	      0.00000000	     42.02002114	    -14.83039907	     42.02002114	     75.02206899	     44.99999788	      0.00000000	      0.00000000
      3.28500000	    -30.45258342	      0.72657148	      6.47819659	      0.08345779	      0.56675149	     -1.18963473	    102.78960173	    -47.50464965	      8.31639534	     95.85287769	      1.67294831	     26.85840080	      0.55583909	      0.00000000	     99.83049774	    -34.17552037	      2.70386792	     91.88027467	      1.60361331	     27.04918388	     15.70222681	      0.00000000	      0.00000000	      0.00000000	      0.00000000	     42.07113298	    -14.83499439	     42.07113298	     75.02101715	     44.99999812	      0.00000000	      0.00000000	     42.07113298	    -14.83499439	     42.07113298	     75.02101715	     44.99999812	      0.00000000	      0.00000000
      3.29000000	    -30.78202752	      0.73020682	      6.79265218	      0.08315513	      0.56410367	     -1.19036383	    103.73503567	    -47.86474219	      8.92094332	     96.20761441	      1.67913964	     26.95607723	      0.90656648	      0.00000000	    100.43980907	    -33.71699824	      2.88622913	     92.19459703	      1.60909927	     26.97032112	     15.34478267	      0.00000000	      0.00000000	      0.00000000	      0.00000000	     42.11423924	    -14.83884801	     42.11423924	     75.02014407	     44.99999832	      0.00000000	      0.00000000	     42.11423924	    -14.83884801	     42.11423924	     75.02014407	     44.99999832	      0.00000000	      0.00000000
      3.29500000	    -30.87420185	      0.75953346	      6.76385618	      0.08307190	      0.56230057	     -1.19031851	    104.19641920	    -47.82574110	      9.24409066	     96.46303311	      1.68359753	     26.97853820	      0.89308249	      0.00000000	    100.75040011	    -33.73925218	      3.04061150	     92.45595697	      1.61366086	     27.05537600	     15.32146946	      0.00000000	      0.00000000	      0.00000000	      0.00000000	     42.16403315	    -14.84326970	     42.16403315	     75.01915725	     44.99999853	      0.00000000	      0.00000000	     42.16403315	    -14.84326970	     42.16403315	     75.01915725	     44.99999853	      0.00000000	      0.00000000
      3.30000000	    -30.72093645	      0.69677845	      6.72129497	      0.08332876	      0.56107583	     -1.19029074	    104.16512846	    -47.85361207	      9.29958746	     96.70929586	      1.68789563	     27.16996535	      1.06401223	      0.00000000	    100.88125897	    -33.81853151	      3.29704214	     92.72754270	      1.61840093	     27.17482087	     15.37448871	      0.00000000	      0.00000000	      0.00000000	      0.00000000	     42.21077539	    -14.84736129	     42.21077539	     75.01827283	     44.99999870	      0.00000000	      0.00000000	     42.21077539	    -14.84736129	     42.21077539	     75.01827283	     44.99999870	      0.00000000	      0.00000000
      3.30500000	    -30.76566192	      0.69013679	      6.71555678	      0.08330290	      0.55929170	     -1.19037608	    104.53546672	    -47.85968464	      9.57970835	     96.96827010	      1.69241558	     27.21249852	      1.10548303	      0.00000000	    101.19320603	    -33.80484596	      3.51117169	     93.02596313	      1.62360935	     27.26231516	     15.35842677	      0.00000000	      0.00000000	      0.00000000	      0.00000000	     42.25409013	    -14.85112491	     42.25409013	     75.01747175	     44.99999885	      0.00000000	      0.00000000	     42.25409013	    -14.85112491	     42.25409013	     75.01747175	     44.99999885	      0.00000000	      0.00000000
      3.31000000	    -30.74374102	      0.70001314	      6.68678468	      0.08340925	      0.55771634	     -1.19032922	    104.81141476	    -47.85643636	      9.82644299	     97.23588897	      1.69708641	     27.28451422	      1.16468277	      0.00000000	    101.39862564	    -33.84446741	      3.69273587	     93.29550742	      1.62831378	     27.35618050	     15.36171262	      0.00000000	      0.00000000	      0.00000000	      0.00000000	     42.29631084	    -14.85475919	     42.29631084	     75.01671386	     44.99999898	      0.00000000	      0.00000000	     42.29631084	    -14.85475919	     42.29631084	     75.01671386	     44.99999898	      0.00000000	      0.00000000
      3.31500000	    -30.68642584	      0.68812189	      6.67640711	      0.08351381	      0.55624028	     -1.19034556	    105.00983718	    -47.87802020	     10.03650566	     97.49237415	      1.70156292	     27.40030838	      1.25281988	      0.00000000	    101.58713589	    -33.85858415	      3.89320131	     93.55880079	      1.63290912	     27.47277092	     15.37732337	      0.00000000	      0.00000000	      0.00000000	      0.00000000	     42.33550338	    -14.85810131	     42.33550338	     75.01603094	     44.99999910	      0.00000000	      0.00000000	     42.33550338	    -14.85810131	     42.33550338	     75.01603094	     44.99999910	      0.00000000	      0.00000000
      3.32000000	    -30.74900327	      0.68973037	      6.64899216	      0.08349791	      0.55440404	     -1.19035516	    105.41132080	    -47.85707468	     10.31988879	     97.76265729	      1.70628026	     27.44464850	      1.28506961	      0.00000000	    101.91055158	    -33.86791919	      4.10150490	     93.84320864	      1.63787297	     27.54180014	     15.33789179	      0.00000000	      0.00000000	      0.00000000	      0.00000000	     42.37703640	    -14.86161574	     42.37703640	     75.01532471	     44.99999921	      0.00000000	      0.00000000	     42.37703640	    -14.86161574	     42.37703640	     75.01532471	     44.99999921	      0.00000000	      0.00000000
      3.32500000	    -30.64854611	      0.67478639	      6.62959514	      0.08368663	      0.55298827	     -1.19037636	    105.54487584	    -47.88387289	     10.50930013	     98.01660338	      1.71071245	     27.57712546	      1.40291333	      0.00000000	    102.05842419	    -33.89972184	      4.31318477	     94.12051282	      1.64271284	     27.67058165	     15.37995808	      0.00000000	      0.00000000	      0.00000000	      0.00000000	     42.41545507	    -14.86483069	     42.41545507	     75.01469424	     44.99999931	      0.00000000	      0.00000000	     42.41545507	    -14.86483069	     42.41545507	     75.01469424	     44.99999931	      0.00000000	      0.00000000
      3.33000000	    -30.65419189	      0.65462682	      6.60747234	      0.08376192	      0.55129047	     -1.19041935	    105.83340710	    -47.88976983	     10.73267473	     98.27905671	      1.71529313	     27.65917397	      1.47051879	      0.00000000	    102.33499732	    -33.91054421	      4.54192115	     94.40591523	      1.64769405	     27.76246248	     15.36372145	      0.00000000	      0.00000000	      0.00000000	      0.00000000	     42.45461842	    -14.86807986	     42.45461842	     75.01406886	     44.99999940	      0.00000000	      0.00000000	     42.45461842	    -14.86807986	     42.45461842	     75.01406886	     44.99999940	      0.00000000	      0.00000000
      3.33500000	    -30.60926734	      0.62878701	      6.58303105	      0.08391131	      0.54972413	     -1.19046525	    106.03291069	    -47.90634501	     10.92479995	     98.53114095	      1.71969283	     27.74334730	      1.54806365	      0.00000000	    102.55922471	    -33.93212145	      4.77798035	     94.68647922	      1.65259082	     27.86673148	     15.39604254	      0.00000000	      0.00000000	      0.00000000	      0.00000000	     42.49237080	    -14.87118321	     42.49237080	     75.01348337	     44.99999947	      0.00000000	      0.00000000	     42.49237080	    -14.87118321	     42.49237080	     75.01348337	     44.99999947	      0.00000000	      0.00000000
